<?xml version="1.0" encoding="UTF-8" standalone="no"?>
<svg
   version="1.1"
   width="137px"
   height="316px"
   viewBox="-2.4 -0.35 136.7 315.85"
   id="svg75"
   sodipodi:docname="308.svg"
   inkscape:version="1.3.2 (091e20e, 2023-11-25, custom)"
   xmlns:inkscape="http://www.inkscape.org/namespaces/inkscape"
   xmlns:sodipodi="http://sodipodi.sourceforge.net/DTD/sodipodi-0.dtd"
   xmlns="http://www.w3.org/2000/svg"
   xmlns:svg="http://www.w3.org/2000/svg">
  <defs
     id="defs75" />
  <sodipodi:namedview
     id="namedview75"
     pagecolor="#ffffff"
     bordercolor="#000000"
     borderopacity="0.25"
     inkscape:showpageshadow="2"
     inkscape:pageopacity="0.0"
     inkscape:pagecheckerboard="0"
     inkscape:deskcolor="#d1d1d1"
     showgrid="false"
     inkscape:zoom="2.5727848"
     inkscape:cx="68.602706"
     inkscape:cy="157.61132"
     inkscape:window-width="1920"
     inkscape:window-height="1009"
     inkscape:window-x="-8"
     inkscape:window-y="-8"
     inkscape:window-maximized="1"
     inkscape:current-layer="svg75" />
  <g
     id="g75"
     transform="matrix(0.55329175,0,0,0.5544,26.282504,70.72527)">
    <path
       fill="#f4f3f9"
       d="m 83.05,92.35 q 9.35,-0.3 16.65,-7.05 6.55,-6.05 8.35,-13.85 0.85,0.9 2.9,4.25 1.85,14.2 -4.6,25.4 -6,10.4 -14.8,11.85 0.45,-1.15 0.05,-2.6 -0.35,-1.2 -1.05,-1.95 -2.7,-3 -7.65,-2.65 -4.25,0.35 -6.55,2.35 -1.1,1 -1.2,2.75 -0.15,1.85 0.85,3.2 -12.95,-1.7 -20.2,-13.6 -5.85,-9.7 -5.85,-21.05 l 2.6,-3.8 q 3.65,7.05 12.1,11.95 8.95,5.15 18.4,4.8"
       id="path1" />
    <path
       fill="#e30077"
       d="m 83.65,37.4 q 9.45,0.3 17,7.1 8.25,7.4 8.7,18.4 9.2,1.05 14.9,4.95 3.5,2.35 6.4,6.65 1.9,2.75 2,5.8 0.1,2.75 -1.15,4.55 -1.25,1.85 -4.45,2.3 -3.55,0.45 -6.75,-1.45 -3,-1.8 -6.55,-6.2 l -5.7,-8.05 q 0.2,5.3 -7.85,12.9 -8.85,8.45 -17.9,7.95 -11.6,-0.65 -19.8,-5.85 -6.9,-4.4 -9.95,-10.85 -3,5.1 -7.9,9.65 -4.2,3.9 -7.3,5.35 -2.5,1.2 -5.1,1.15 -3.4,-0.05 -5.65,-2.45 -2.4,-2.5 -1.85,-5.8 0.45,-3.05 3.35,-6.4 2.5,-3 9.6,-5.4 Q 44,69.6 49.3,69.3 48.6,56.4 57.1,47 64.6,38.65 73.75,38 68.85,31.8 67.15,26.45 65.9,22.3 66.1,16.5 q 0.2,-5.25 3.05,-9.6 3.3,-5.2 8.55,-5.45 5.35,-0.3 8.6,4 2.75,3.65 3.15,9.2 0.35,4.9 -1.15,10.9 -1.55,5.95 -4.65,11.85"
       id="path2" />
    <path
       fill="#e30077"
       d="m 77.15,114.8 q -2.45,-1.75 -2.3,-4.05 0.15,-2.25 2.75,-3.65 2.55,-1.35 6.5,-1.45 3.55,-0.05 5.9,2.35 1.95,2.05 1.8,3.95 -0.15,2.2 -2.3,3.45 -2.2,1.2 -6.05,1.15 -3.8,0 -6.3,-1.75"
       id="path3" />
    <path
       fill="#e30077"
       d="m 57.55,171.7 q 6.05,5.6 12.5,14.6 4.85,6.7 9.05,14 11.55,-11.1 16.2,-28.95 10.3,12.6 18.65,26.5 8.55,14.3 13.2,26.85 4.35,11.9 3.05,24 -1.1,10.55 -5.8,17 -10.5,14.4 -23.85,19.7 -10.05,3.95 -20.5,2.45 Q 66.45,299.1 47.9,299.1 27.45,299.1 14.7,285 2.2,271.15 1.5,248.8 0.9,230.75 14.75,204.35 25.6,183.6 36,172.5 q 5.4,-5.7 11.45,-5.5 5.3,0.2 10.1,4.7"
       id="path4" />
    <path
       fill="#dbc77f"
       d="m 94.9,157.85 q 3.45,3.95 -0.4,16.85 -4.3,14.4 -14.55,24.8 l -2,-7.65 q 5.2,-6.45 6.75,-16.65 1.35,-8.6 -0.2,-15.35 l 10.4,-2"
       id="path5" />
    <path
       fill="#ffe792"
       d="m 37.45,170.85 q -1.9,1.65 -6.1,7.15 -4,5.25 -7.9,11 0.05,-10.3 6.35,-19.2 5.65,-8.1 14,-11.95 l 15.6,1.7 q 8.5,6.65 14.25,20.35 3.7,8.7 6.55,21.4 -14.2,-22.65 -24.6,-31.35 -4.75,-4 -10.85,-2.7 -4.25,0.9 -7.3,3.6"
       id="path6" />
    <path
       fill="#ffe792"
       d="m 46.8,234.1 q 8.45,0.3 13.75,6.7 4.75,5.8 4.65,13 -0.1,7.15 -4.5,11.7 -4.95,5.15 -13.75,4.9 -8.5,-0.25 -13.6,-6.45 -4.15,-5.1 -4.3,-11.2 -0.1,-7.5 5.3,-13.2 5.4,-5.65 12.45,-5.45"
       id="path7" />
    <path
       fill="#ffe792"
       d="m 128.6,229.5 q 2.25,8.6 1.95,16.25 -0.25,6.55 -2.45,13.05 -1.15,1.75 -2.95,2.65 -1.95,0.95 -3.9,0.55 -4.25,-0.8 -5.6,-6.55 -0.7,-3.05 -0.7,-10.15 0,-4.1 2.15,-9.4 1.65,-4.15 4.05,-7.85 1.7,-2.65 4.3,-1.55 2.1,0.9 3.15,3"
       id="path8" />
    <path
       fill="#ffe792"
       d="m 73.2,73.55 q 1.6,0 2.6,1.25 0.8,1.05 0.8,2.45 0,1.15 -1.15,2.15 -1.15,0.9 -2.4,0.9 -1.3,0 -2.3,-1 -1.05,-1 -1.05,-2.5 0,-1.45 1.15,-2.35 1,-0.85 2.35,-0.9"
       id="path9" />
    <path
       fill="#ffe792"
       d="m 83.4,81.5 q 1.75,-0.1 2.9,1.3 0.95,1.15 0.9,2.3 -0.1,1 -1.15,1.85 -1.15,1 -2.7,1.05 -1.6,0.05 -2.55,-1.05 -0.9,-1 -0.85,-2.35 0.05,-1.25 1.15,-2.2 1.05,-0.85 2.3,-0.9"
       id="path10" />
    <path
       fill="#ffe792"
       d="m 93.1,71.9 q 1.7,0.05 2.6,1.35 0.75,1.05 0.75,2.65 0,1.3 -1.1,2.25 -0.95,0.8 -2.3,0.9 -1.4,0.05 -2.35,-0.8 -1.15,-1 -1.1,-2.75 0.05,-1.75 1.1,-2.7 1,-0.9 2.4,-0.9"
       id="path11" />
    <path
       fill="#f4f3f9"
       d="m 76.75,121.2 q 27.45,11.8 45.5,19.9 1.85,0.85 2.65,2.85 0.65,1.75 0.2,3.55 -0.4,1.7 -2,3 -1.55,1.35 -3.75,1.9 L 85.7,159.75 82,159.5 79.35,157.25 q -0.7,2.1 -3.2,2.8 l -4.8,0.45 q -11.55,0 -47.7,-5.6 -3.55,-0.55 -5,-2.25 -1.05,-1.3 -1.2,-3.65 -0.15,-1.85 1.25,-3.65 1.2,-1.65 3.35,-2.85 4.45,-2.45 21.9,-10.6 16.15,-7.55 19.15,-8.75 3.65,-1.45 4.75,-4.1 l 2.05,-6.65 q 1.65,0.9 6.1,1.65 l 2.15,1.5 q -0.45,1.25 -1.4,5.65 M 63.5,131 q -10.3,3.25 -33.45,14 15.7,1.05 27.4,0.75 1.75,-3.2 3.8,-8.5 L 63.5,131 m 47.25,13.15 q -2.7,-1.6 -11.75,-5.9 l -11.5,-5.4 q 0.3,5.05 1.55,14.4 l 21.7,-3.1"
       id="path12" />
    <path
       fill="#f4f3f9"
       d="M 77.75,191.7 Q 71.2,168.85 59.85,159.65 l 13.2,0.9 q 2.4,-0.05 3.85,-0.8 1.5,-0.75 2.45,-2.5 0.1,0.95 2,1.85 1.85,0.85 3.15,0.75 1.5,9.2 -0.15,17.75 -1.8,9.05 -6.6,14.1"
       id="path13" />
    <path
       fill="#ffffff"
       d="m 72.95,90.95 q -0.75,4.1 -4.25,6 -3.4,1.8 -6.85,0.25 -3.3,-1.45 -4.3,-5.9 -1,-4.3 0.9,-7.6 2.5,1.9 7.15,4.25 4.55,2.25 7.35,3"
       id="path14" />
    <path
       fill="#ffffff"
       d="m 105.2,78.85 q 2.75,5.4 1.15,10.15 -1.3,3.85 -4.35,5.5 l -5.6,0.2 q -3.1,-1.3 -4.3,-4.75 4.2,-1.85 8,-5.45 l 5.1,-5.65"
       id="path15" />
    <path
       fill="#f4f3f9"
       d="M 83.55,292.45 Q 77.5,292.2 76.3,290.5 l 3.15,-2.5 q 5,0.7 10.5,0.05 6.65,-0.75 12.55,-3.35 4.5,3.55 8.95,1.95 l 3.8,-0.15 q 1.45,0.8 0.05,2.7 l -3,3.2 -2.9,2.1 q -1.4,1 -3.9,1.4 l -5.55,-0.2 q -12.75,-3.15 -16.4,-3.25"
       id="path16" />
    <path
       fill="#f4f3f9"
       d="m 50.35,298.95 1.9,6.05 q 1.1,3.35 -2.3,5.7 -3.8,2.6 -8.8,3.05 -3.85,0.4 -7.35,-0.55 -2.05,-0.5 -2.95,-2.1 -0.7,-1.2 -0.55,-2.6 0.2,-2.95 1.45,-6.15 1.15,-3.05 4.7,0 1.9,-1.7 3,-4.25 l 10.9,0.85"
       id="path17" />
    <path
       fill="#c60068"
       d="m 25.2,83.65 q 2.5,3.8 10.35,2.5 Q 44.8,84.65 51.9,75.7 43.65,89 35.95,91 32.2,92 28.85,90.55 24.55,88.7 25.2,83.65"
       id="path18" />
    <path
       fill="#c60068"
       d="m 88.25,8.6 q 2.15,7.4 0.15,16.35 -1.85,8.5 -6.45,14.4 -1.1,1.1 -1.6,-0.55 -0.55,-1.65 0.45,-2.75 3.55,-4.05 5.55,-12.85 1.5,-6.65 1.9,-14.6"
       id="path19" />
    <path
       fill="#c60068"
       d="M 83.15,92.5 Q 76.3,93.15 66.8,88.7 55.85,83.5 52.65,75.55 l 0.85,-1.6 q 5.65,7.8 13.7,11.75 7.65,3.8 15.75,3.3 8.15,-0.5 14.7,-5.3 6.9,-5.05 10.45,-13.95 0.35,6.15 -7,13.65 -8,8.1 -17.95,9.1"
       id="path20" />
    <path
       fill="#c60068"
       d="m 108.35,69.15 q 4.5,8.35 12.2,12.7 8.55,4.9 11.55,-2.2 0.8,2.8 -0.65,5.1 -1.45,2.35 -4.45,2.55 -3.9,0.25 -7.3,-2.1 -5.05,-3.5 -11.6,-13.7 l 0.25,-2.35"
       id="path21" />
    <path
       fill="#d3d2d8"
       d="m 106.9,75.8 0.8,-2.5 0.45,-2.05 2.6,4.15 q 1.25,10.3 -2.3,20.5 -4.5,13.05 -15.05,16.75 10.15,-6.45 13.5,-18.5 2.85,-10.2 0,-18.35"
       id="path22" />
    <path
       fill="#d3d2d8"
       d="m 69.55,114.5 0.4,-2 q 1.15,0.65 6.4,1.75 l 1.75,1.35 -1.35,4.3 q -0.9,-2.2 -2.7,-3.5 -1.65,-1.15 -4.5,-1.9"
       id="path23" />
    <path
       fill="#d3d2d8"
       d="m 80.3,123.15 q 0.6,2.4 1.25,3.05 l -2.6,1.75 -2.05,0.05 -0.7,-0.75 0.55,-6 3.55,1.9"
       id="path24" />
    <path
       fill="#d3d2d8"
       d="m 95.65,135.9 11.35,4.45 q 6.4,2.35 10.7,3.1 l -6.95,0.7 q -9.65,-4.95 -15.1,-8.25"
       id="path25" />
    <path
       fill="#d3d2d8"
       d="m 81.1,158.75 q -1.7,-1.25 -1.6,-2.9 2.25,-18.55 2.35,-24.85 0.9,15.8 0.55,22.15 -0.15,2.5 1.85,3.35 l 3.7,0.2 22.25,-4.2 q 14.1,-2.95 14.65,-5.35 -0.3,2 -1.25,3.05 -1,1.1 -2.95,1.65 l -34.55,7.8 q -3.05,0.6 -5,-0.9"
       id="path26" />
    <path
       fill="#d3d2d8"
       d="m 25.95,144.45 q 12.7,-4.1 18.1,-6.3 l -14.65,7.05 -3.45,-0.75"
       id="path27" />
    <path
       fill="#d3d2d8"
       d="m 19.1,152.9 q -2.4,-2.15 -0.95,-6.4 0.6,2.6 2.1,3.95 1.6,1.4 5.05,2.05 7.7,1.55 25,3.55 22,2.6 25.35,0.95 1.65,-0.85 2.75,-2.7 1.05,-1.75 1.9,-4.95 -0.5,8.85 -2.65,10 -2.8,1.6 -7.85,1.2 l -24.35,-2.65 -20.6,-2.8 q -4.1,-0.7 -5.75,-2.2"
       id="path28" />
    <path
       fill="#d3d2d8"
       d="M 77.85,191.6 76,185.15 q 3.9,-3.7 6,-10.55 1.5,-4.95 2.65,-13.9 1.5,9.9 -0.75,18.55 -1.9,7.15 -6.05,12.35"
       id="path29" />
    <path
       fill="#dbc77f"
       d="m 67.65,168.55 q 4.2,6 7.8,16.1 3,8.55 4.5,16.7 -3.3,-6.5 -13.2,-19.15 4.45,-3.7 0.9,-13.65"
       id="path30" />
    <path
       fill="#c60068"
       d="m 100.1,177.75 q -3,5.95 -7.95,12.05 -5.55,6.85 -11.85,11.65 l -0.5,-1.95 q 5.55,-5.7 9.85,-13.45 4.25,-7.65 5.75,-14.5 l 4.7,6.2"
       id="path31" />
    <path
       fill="#c60068"
       d="m 91.1,270.8 q -5.5,16.15 -20.05,22.85 -15.5,7.1 -31.05,4.7 -13.75,-2.1 -23.05,-10.65 -8.3,-7.55 -12.85,-21.6 -4.35,-13.45 -2.25,-22.9 4.35,20.15 17.65,30.45 11.9,9.25 27.85,8.6 15.3,-0.65 28,-9.95 13.35,-9.7 18.05,-25 1.7,11.65 -2.3,23.5"
       id="path32" />
    <path
       fill="#d3d2d8"
       d="m 50.5,298.85 q 0.45,2.25 2.15,7.15 0.35,1.05 -0.3,2.4 -0.6,1.25 -1.75,2.05 -4.7,3.1 -10.4,3.35 l -6.85,-0.65 q -3.3,-0.65 -3.1,-4.7 0.1,-1.4 1.35,-5.7 1.75,2.7 4.55,3.45 2.55,0.7 4.45,-0.45 -2,-1.05 -4.2,-3.5 l 1.75,-1.85 1.15,-1.95 5.15,0.5 6.05,-0.1"
       id="path33" />
    <path
       fill="#d3d2d8"
       d="m 84.15,292.45 -4.5,-0.5 q -2.3,-0.4 -3.3,-1.3 l 3.45,-2.75 q 4.45,0.7 10.5,0 7.15,-0.85 12.1,-3.35 1.95,1.3 3,1.8 2,1 3.75,1 -1.85,2.15 -1.5,3.7 0.45,1.7 3.65,2.05 -2.65,2.05 -3.75,2.55 -2.3,1.05 -5.05,0.3 l -9.55,-2.05 -8.8,-1.45"
       id="path34" />
    <path
       fill="#c60068"
       d="m 90.95,272 q 19.95,4.85 34,-10.25 l 1.7,-0.6 q -3.55,9.6 -14.9,18.05 -14.75,11 -31.95,8.7 3.1,-2.7 5.95,-6.65 3.25,-4.5 5.2,-9.25"
       id="path35" />
    <path
       fill="#c60068"
       d="m 75.7,109.7 q 0.65,3.35 7.05,4.25 6.6,0.95 9,-2.6 -0.25,2.25 -2.05,3.65 -2.3,1.75 -6.7,1.5 -4.65,-0.25 -6.9,-2.55 -2.15,-2.2 -0.4,-4.25"
       id="path36" />
    <path
       fill="#0d131a"
       d="m 71,79.05 q 0.9,0.9 2.15,0.9 1.25,0 2.15,-0.9 0.9,-0.85 0.9,-2.1 0,-1.25 -0.9,-2.15 -0.85,-0.9 -2.15,-0.9 -1.25,0 -2.15,0.9 -0.9,0.9 -0.9,2.15 0,1.25 0.9,2.1 M 70.45,74.1 q 1.2,-1.2 2.8,-1.2 1.65,0 2.85,1.2 1.15,1.2 1.15,2.85 0,1.6 -1.25,2.75 -1.2,1.1 -2.85,1.1 -1.6,0 -2.75,-1.15 -1.15,-1.1 -1.15,-2.7 0,-1.6 1.2,-2.85"
       id="path37" />
    <path
       fill="#0d131a"
       d="m 86.65,84.85 q 0,-1.25 -1.05,-2.15 -1.05,-0.85 -2.3,-0.85 -1.25,0 -2.1,0.85 -0.85,0.9 -0.85,2.15 0,1.25 0.95,2 0.85,0.6 2.1,0.6 1.35,0 2.25,-0.65 1,-0.75 1,-1.95 M 83.2,80.9 q 1.65,0 3,1.2 1.3,1.2 1.3,2.75 0,1.6 -1.3,2.55 -1.15,0.9 -2.8,0.9 -1.7,0 -2.85,-1 -1.2,-1 -1.2,-2.55 0,-1.6 1.1,-2.75 1.15,-1.1 2.75,-1.1"
       id="path38" />
    <path
       fill="#0d131a"
       d="m 92.95,72.3 q -1.35,0 -2.15,0.9 -0.85,0.85 -0.85,2.35 0,1.4 0.85,2.2 0.85,0.85 2.25,0.85 1.35,0 2.15,-0.85 0.75,-0.9 0.75,-2.35 0,-1.45 -0.8,-2.25 -0.8,-0.85 -2.2,-0.85 m -2.75,0.2 q 1.1,-1.2 2.8,-1.2 1.75,0 2.85,1.05 1.1,1.05 1.1,2.85 0,1.8 -1.1,3 -1.1,1.2 -2.8,1.2 -1.75,0 -2.85,-1.05 -1.05,-1.05 -1.05,-2.8 0,-1.85 1.05,-3.05"
       id="path39" />
    <path
       fill="#0d131a"
       d="m 81.05,111.35 q 3.45,-0.7 6.1,-0.05 0.65,0.2 0.6,0.75 -0.05,0.55 -0.7,0.45 l -2.65,-0.15 -3.15,0.25 q -0.75,0.15 -0.85,-0.45 -0.1,-0.6 0.65,-0.8"
       id="path40" />
    <path
       fill="#0d131a"
       d="m 30.05,76.45 q -3.5,2.2 -4.3,6.3 -0.7,3.55 0.8,5.35 3.15,3.7 7.95,2.75 3.2,-0.65 6.4,-3.1 2.2,-1.65 5.55,-5.4 3.7,-4.05 6.4,-8 0.6,-0.9 0.95,-0.65 0.3,0.2 -0.25,1.15 -2.25,3.85 -5.9,8.35 -3.45,4.2 -5.8,6.2 -3.8,3.15 -8.2,3.8 -5.4,0.75 -8.6,-3.25 -2.4,-3.05 -1.3,-7.6 1.2,-4.65 5.35,-7.3 8.85,-5.55 20.95,-6.3 1.15,-0.05 1.2,0.4 0.05,0.45 -1.05,0.55 -11.4,1 -20.15,6.75"
       id="path41" />
    <path
       fill="#0d131a"
       d="M 55.1,47.65 Q 62,38.45 72.65,36.7 l 1.5,1.85 q -9.7,0.4 -17.3,9.85 -7.7,9.6 -6.8,20.75 l -1.3,0.1 Q 48.05,57 55.1,47.65"
       id="path42" />
    <path
       fill="#0d131a"
       d="m 86.7,3.95 q 3.75,4.45 3.65,11.1 -0.05,5.45 -1.45,11 -1.95,7.8 -6.15,13.35 -0.7,0.9 -1.15,0.6 -0.45,-0.3 0.25,-1.2 3.65,-4.75 5.4,-11.85 1.35,-5.6 1.35,-11.7 0,-5.85 -3.05,-9.6 Q 82.5,1.85 77.95,2.3 72.2,2.9 69.2,8.05 66.65,12.5 66.65,18.9 q -0.05,6.25 2.6,11.35 1.55,3.05 6.2,8.95 0.75,0.95 0.25,1.2 -0.45,0.25 -1.25,-0.65 Q 70.15,35 67.95,30.3 65.3,24.75 65.2,18.6 q -0.1,-7.35 3,-12.4 3.45,-5.65 9.7,-6.15 5.1,-0.4 8.8,3.9"
       id="path43" />
    <path
       fill="#0d131a"
       d="m 83.05,38.15 1.1,-1.95 q 9.7,0.25 17.05,7.45 8,7.85 8.45,19.95 0.05,1 -0.35,0.95 -0.4,-0.05 -0.5,-1.05 -1.2,-11.35 -9.15,-18.7 -7.5,-6.9 -16.6,-6.65"
       id="path44" />
    <path
       fill="#0d131a"
       d="m 107.85,71.65 0.4,-1.7 q 1.55,3.4 4.65,7.5 3.55,4.75 6.75,7.05 3.2,2.3 6.55,2.05 3,-0.2 4.65,-2.25 1.35,-1.65 1,-4.65 -0.4,-3.7 -3.4,-7.2 -3.1,-3.6 -8.25,-6 -5,-2.3 -11.05,-3.1 l -0.1,-1.1 q 6.45,0.5 12,3.05 5.75,2.55 8.95,6.6 3.25,4.05 3.8,8.25 0.5,3.85 -1.35,5.75 -2.3,2.45 -5.75,2.6 -3.75,0.2 -7.35,-2.4 -3.3,-2.35 -6.85,-7 -2.95,-3.95 -4.65,-7.45"
       id="path45" />
    <path
       fill="#0d131a"
       d="m 82.15,91.7 q 8.7,0.25 17.05,-7.15 8.1,-7.2 8.5,-14.8 0.05,-0.9 0.4,-0.9 0.3,0 0.35,0.85 0.25,8.1 -8.3,15.9 -8.65,7.9 -17.9,7.65 Q 72.85,92.95 64.8,88.7 55.85,84 52.2,76.15 l 0.7,-1.2 q 3.3,7.2 12.1,12 8.2,4.5 17.15,4.75"
       id="path46" />
    <path
       fill="#0d131a"
       d="m 92.65,90.25 q 0.8,2.45 3.75,3.65 2.9,1.2 5.35,0.05 3.65,-1.7 4.45,-6.75 0.8,-4.85 -1.55,-8.1 l 0.85,-1.05 q 2.8,4.35 1.75,9.65 -1.05,5.25 -5.05,7.15 -3.15,1.5 -6.5,0 -3.05,-1.35 -4.2,-3.95 l 1.15,-0.65"
       id="path47" />
    <path
       fill="#0d131a"
       d="m 102.35,82.4 q 1.55,1.85 1.55,4.35 0,1.7 -1.15,3.1 -1.25,1.5 -2.85,1.6 -1.65,0.1 -2.9,-0.85 -1.15,-0.85 -1.4,-2.1 4.45,-3.4 6.75,-6.1"
       id="path48" />
    <path
       fill="#0d131a"
       d="m 70.05,90.55 q -0.25,1.4 -1.6,2.45 -1.4,1.05 -3,0.95 -1.9,-0.1 -3.25,-1.55 -1.35,-1.4 -1.4,-3.35 -0.1,-1.8 0.85,-3.05 4.65,3.05 8.4,4.55"
       id="path49" />
    <path
       fill="#0d131a"
       d="m 70,144 -0.4,2.1 q -7.2,0.55 -21.65,0.35 l -20.7,-0.9 q -1.45,-0.2 -1.5,-0.85 -0.05,-0.65 1.4,-0.45 L 46.65,144.9 70,144"
       id="path50" />
    <path
       fill="#0d131a"
       d="m 58.95,145.4 -1.9,0.1 q 2.9,-5.3 6.35,-16.05 0.35,-1.15 0.75,-1.15 0.45,0.05 0.1,1.2 -3,10.85 -5.3,15.9"
       id="path51" />
    <path
       fill="#0d131a"
       d="m 87.25,133.4 -0.05,-1.45 q 3.8,1.65 12.25,5.75 8.75,4.25 12.7,6.4 l -2.8,0.3 -11.5,-5.85 Q 90,134.45 87.25,133.4"
       id="path52" />
    <path
       fill="#0d131a"
       d="m 59.15,240.25 q -5.35,-5.6 -12.35,-5.6 -6.95,0 -11.95,5.15 -4.95,5.15 -4.95,12.4 0,7.2 5.2,12.45 5.15,5.2 12.25,5.2 7.95,0 12.6,-4.5 4.6,-4.5 4.6,-12.2 0,-7.25 -5.4,-12.9 m -11.95,-7.3 q 7.8,0 13.55,6.2 5.6,6.05 5.6,13.65 0,8.55 -4.95,13.3 -5,4.75 -14,4.75 -8.15,0 -13.45,-5.4 -5.25,-5.3 -5.25,-13.35 0,-7.6 5.2,-13.25 5.4,-5.9 13.3,-5.9"
       id="path53" />
    <path
       fill="#0d131a"
       d="m 58.95,83.85 q -1.8,3 -1.15,6.75 0.75,4.3 4.5,6.15 l 6,0.2 q 3.3,-1.45 4.3,-5.75 l 1.2,0.2 q -0.9,4.35 -4.6,6.2 -3.65,1.75 -7.3,0 -4.3,-2.05 -5.25,-6.95 -0.85,-4.35 1.2,-7.9 l 1.1,1.1"
       id="path54" />
    <path
       fill="#0d131a"
       d="m 49.15,80 1.9,-2.2 q -0.95,11.85 5.7,22.45 7.2,11.5 18.95,13.25 l 1.3,1.35 Q 64.45,114.05 56.35,102.9 48.95,92.7 49.15,80"
       id="path55" />
    <path
       fill="#0d131a"
       d="m 106.65,98.75 q 5.35,-11.2 3.35,-24 l 1.8,2.1 q 2,11.8 -3.85,22.95 -6.2,11.85 -17.3,14.35 l 0.65,-1.3 q 9.95,-2.7 15.35,-14.1"
       id="path56" />
    <path
       fill="#0d131a"
       d="m 74.5,111.2 q 0,-2.55 2.4,-4.35 2.55,-1.9 6.45,-1.9 4.1,0 6.75,2.05 2.55,2 2.4,4.75 -0.1,2.05 -2.35,3.7 -2.5,1.75 -6.15,1.75 -4.2,0 -6.9,-1.75 -2.6,-1.7 -2.6,-4.25 m 1.1,0.05 q -0.05,2.05 2.35,3.5 2.45,1.45 6,1.4 3.5,-0.05 5.5,-1.45 1.65,-1.25 1.8,-3.05 0.1,-2 -2,-3.65 -2.3,-1.8 -5.6,-1.8 -3.75,0 -6,1.6 -2.05,1.4 -2.05,3.45"
       id="path57" />
    <path
       fill="#0d131a"
       d="m 64.65,121.5 q 1.85,-0.9 2.55,-2.55 1.1,-2.8 2.05,-6.55 l 1.3,0.25 -2.15,6.95 q -0.7,2.1 -2.85,3.1 l -24.8,11.65 q -16.3,7.65 -19.85,9.6 -3.15,1.75 -2.85,5.4 0.3,3.9 5.05,4.75 11.4,2.05 26.75,3.9 l 19.25,1.8 6.85,-0.5 q 2.2,-0.65 2.65,-2.65 0.75,-3.15 1.7,-13.45 0.95,-10.35 0.7,-12.45 -0.2,-1.8 -2.35,-2 -2.1,-0.2 -2.25,1.45 l -0.6,6.3 q -0.4,3.95 -1.1,6.3 -0.35,1.2 -0.9,1.15 -0.5,-0.05 -0.25,-1.3 0.4,-1.7 0.8,-6.4 l 0.5,-6.95 q 0.2,-2.9 3.65,-2.85 3.45,0.1 3.75,3.75 0.25,2.35 -0.6,13 -0.85,10.8 -1.6,13.95 -0.6,2.55 -3.15,3.55 -2.8,1.05 -8.15,0.5 L 50.8,159.5 q -17.8,-1.8 -28.05,-3.7 -6.35,-1.15 -6.8,-6.4 -0.4,-4.8 3.4,-6.9 5.05,-2.8 45.3,-21"
       id="path58" />
    <path
       fill="#0d131a"
       d="m 77.6,127.7 -1.35,1 q -0.85,-1.45 -2.55,-1.3 -1.75,0.1 -1.85,1.95 -0.85,12.55 -1.7,16.75 -0.3,1.5 -0.85,1.45 -0.6,-0.05 -0.25,-1.55 l 0.75,-7.55 0.6,-9.85 q 0.2,-2.8 3.15,-3.1 2.95,-0.3 4.05,2.2"
       id="path59" />
    <path
       fill="#0d131a"
       d="m 45.15,137.45 q 15.5,-6.6 18.45,-7.35 l -0.35,1.5 Q 60.4,132.35 47,138.35 l -15.15,6.85 -3.9,-0.3 17.2,-7.45"
       id="path60" />
    <path
       fill="#0d131a"
       d="m 77.2,127.9 -1.75,-0.7 q 0,-2.9 0.55,-6 l 1.3,-6.2 1.4,0.7 q -1.05,3.35 -1.35,6.75 -0.2,2.15 -0.15,5.45"
       id="path61" />
    <path
       fill="#0d131a"
       d="m 77,122.1 0.3,-1.25 q 5.95,2.45 23.95,10.2 17.7,7.6 21.9,9.5 4,1.8 3.8,6.2 -0.25,4.65 -5.5,6.05 l -18.1,4.15 -18.15,3.85 q -2.65,0.55 -4.4,-0.8 -1.75,-1.3 -1.9,-3.75 L 80.05,155 q -0.1,1.85 1.05,3.05 1.3,1.3 3.6,0.95 l 18.7,-3.75 q 13.2,-2.9 17.15,-4.15 3.9,-1.15 4.3,-4.6 0.35,-3.3 -2.7,-4.65 -37,-16.4 -45.15,-19.75"
       id="path62" />
    <path
       fill="#0d131a"
       d="m 80,128.55 -1.7,-0.75 q 0.05,-0.95 1.15,-1.7 0.95,-0.65 2.1,-0.75 1.5,-0.1 2.8,1.05 1.4,1.25 1.3,3.1 l -1.45,-0.3 q -0.5,-2.2 -2.35,-2.05 -1.65,0.1 -1.85,1.4"
       id="path63" />
    <path
       fill="#0d131a"
       d="m 85.3,128.25 q 2.35,0.75 2.6,2.95 l 0.85,8.45 0.9,8.25 q 0.2,1.25 -0.35,1.35 -0.55,0.05 -0.75,-1.2 L 86.5,132 q -0.2,-1.6 -1.9,-2.1 -1.65,-0.5 -3,0.6 l -0.7,-1.7 q 2.05,-1.3 4.4,-0.55"
       id="path64" />
    <path
       fill="#0d131a"
       d="m 89.1,148.3 -0.2,-2.2 13.75,-1.65 14.35,-1.25 q 1.05,-0.05 1.1,0.45 0.05,0.5 -0.95,0.55 l -13.7,1.65 Q 93.3,147.3 89.1,148.3"
       id="path65" />
    <path
       fill="#0d131a"
       d="m 23.95,188.75 -1.1,1.4 q -0.6,-11.95 6.45,-22.2 6.5,-9.5 13.75,-10.3 l 4.1,0.65 q -9.65,1.2 -16.3,10.2 -6.5,8.75 -6.9,20.25"
       id="path66" />
    <path
       fill="#0d131a"
       d="m 34.1,175.4 q -3.1,3.95 -6.05,8.3 -6.5,9.45 -11.6,19.15 -16.1,30.6 -13.35,53.35 2.35,19.3 14.5,30.75 12.45,11.75 31.45,11.4 Q 67.05,298 79.2,287.4 94.15,274.35 93.05,250.15 91.9,225.3 79.55,202.3 70.85,186.05 58.1,173.15 q -5.95,-6 -12.05,-5.45 -6.2,0.5 -11.95,7.7 m -7.3,7.3 6.3,-8.3 q 6.3,-7.85 13.15,-8.2 7.05,-0.4 13.8,7.1 13.65,15.15 21.2,28.6 12.85,22.7 14,47.35 1.15,25.1 -14.75,38.65 -12.55,10.65 -31.05,11.55 -18.95,0.9 -32.5,-10.75 -14.05,-12.1 -16.6,-33 -2.75,-23 14.2,-53.7 5.4,-9.75 12.25,-19.3"
       id="path67" />
    <path
       fill="#0d131a"
       d="M 72.8,178.1 Q 66.3,163.4 57.55,159.65 l 3.7,0.25 q 6.75,3.65 12.6,16.9 5.65,12.85 7.2,27.1 l -1.1,-1.85 Q 77.5,188.75 72.8,178.1"
       id="path68" />
    <path
       fill="#0d131a"
       d="m 78.6,192.65 -0.5,-1.5 q 4.55,-5.4 6.25,-14.8 1.65,-9.4 -0.7,-16.2 l 1.85,-0.4 q 2,7.35 0.35,16.6 -1.85,10.1 -7.25,16.3"
       id="path69" />
    <path
       fill="#0d131a"
       d="m 94.1,175.75 q 3.9,-11.95 0,-17.6 l 1.9,-0.5 q 3.7,6.9 -0.35,18.55 -4.25,12.3 -15.45,24.55 l -0.3,-1.6 q 10.15,-10.95 14.2,-23.4"
       id="path70" />
    <path
       fill="#0d131a"
       d="m 95.25,172.8 0.8,-2.1 q 16.35,22.25 22.1,32.1 12.65,21.75 13.6,38.9 0.6,10.8 -4.15,20.45 -4.35,9 -12.5,15.65 -7.85,6.4 -17.45,9.25 -9.75,2.95 -19,1.45 l 1.3,-1.05 q 8.25,1.35 17.3,-1.5 8.95,-2.8 16.35,-8.95 17.05,-14.2 16,-35.15 -0.8,-16.45 -12.8,-37.45 -6.2,-10.8 -21.55,-31.6"
       id="path71" />
    <path
       fill="#0d131a"
       d="m 124.45,225.5 q 2.05,0 3.3,1.9 l -0.05,1.85 q -1.1,-2.1 -2.85,-2.35 -1.65,-0.25 -2.9,1.3 -1.95,2.5 -3.7,6.6 -2.4,5.45 -2.7,10.3 -0.65,10.05 2.85,14.45 3.5,4.4 8.2,-0.1 l -0.2,1.75 q -4.9,3.9 -8.8,0.1 -4.5,-4.35 -3.7,-16.7 0.3,-5 3,-10.75 2.15,-4.6 4.2,-6.85 1.45,-1.5 3.35,-1.5"
       id="path72" />
    <path
       fill="#0d131a"
       d="m 51.25,298.95 1.65,6.6 q 0.5,1.95 0.3,3.1 -0.25,1.5 -1.55,2.35 -2.35,1.65 -6.25,2.8 -5.95,1.7 -11.55,0.5 -1.7,-0.4 -3,-1.65 -1.55,-1.5 -1.55,-3.4 0,-1.6 0.85,-4.05 l 1.35,-3.45 q 0.65,-1.5 1.95,-1.8 1.3,-0.25 2.5,1.05 3.95,4.15 7.1,6 1,0.55 0.65,0.95 -0.3,0.4 -1.25,-0.15 -3.9,-2.15 -7.25,-5.7 -0.75,-0.8 -1.55,-0.75 -0.8,0.05 -1.2,0.95 -0.55,1.4 -1,3.35 -0.45,2.1 -0.45,3.75 0,1.35 0.75,2.1 0.75,0.75 2.45,1.1 l 10.45,-0.3 q 3.05,-0.85 5.45,-2.45 1.2,-0.8 1.55,-1.75 0.4,-0.95 0.05,-2.4 l -2.1,-6.7 1.65,-0.05"
       id="path73" />
    <path
       fill="#0d131a"
       d="m 36.7,302.85 -0.6,-0.8 q 1.65,-1.7 2.45,-3.65 l 1.7,0.4 -1.5,2.25 q -1.1,1.25 -2.05,1.8"
       id="path74" />
    <path
       fill="#0d131a"
       d="m 98.45,296.35 -8.95,-2.25 -6.9,-1.3 -4.35,-0.55 q -2.5,-0.55 -2.85,-1.8 L 76.45,290 q 0.45,0.85 2.4,1.3 l 3.75,0.55 7.25,1.05 8.75,1.9 5.15,0.75 q 2.85,0.05 4.35,-0.85 l 3.2,-2.45 2.9,-2.6 q 1.65,-1.9 0.7,-2.65 -0.95,-0.8 -4.15,0.35 l -3.4,0.25 q -2.8,-0.65 -5.75,-2.6 l 1.1,-0.95 q 3,2.05 4.8,2.5 l 2.9,-0.2 q 3.7,-1.45 5.75,-0.25 2.15,1.3 -0.65,4.5 l -3.45,3 -3.15,2.35 q -1.65,1.15 -4.5,1.2 -2.75,0.1 -5.95,-0.8"
       id="path75" />
  </g>
</svg>
