<?xml version="1.0" encoding="UTF-8" standalone="no"?>
<svg
   version="1.1"
   width="151"
   height="325"
   viewBox="-1.55 -0.2 150.9 324.8"
   id="svg127"
   xmlns="http://www.w3.org/2000/svg"
   xmlns:svg="http://www.w3.org/2000/svg">
  <defs
     id="defs127" />
  <g
     id="g127"
     transform="matrix(0.56874719,0.00624347,-0.00629672,0.6397945,32.945816,53.889948)">
    <path
       fill="#76161b"
       d="m 81.7,27.8 5.9,0.3 q 1.65,1.25 0.2,14.95 2.7,3.65 3.7,8.5 0.75,3.9 0.2,6.5 -6.25,-1.25 -12.3,1.2 -5.8,2.3 -9.75,7.3 -3.15,-3.55 -7.6,-5.5 -3.65,-1.55 -7.5,-1.8 -3.45,-0.25 -7.6,1.3 -4.4,1.6 -7.5,4.5 -2.55,-4.7 -7.6,-7.5 -5.25,-2.95 -11.05,-2.5 0.35,-4.55 2.4,-9.5 1.9,-4.5 4,-6.75 l -0.05,-8.6 q 0.35,-5.85 2.15,-6.6 1.9,-0.8 6.55,1.35 3.65,1.65 7.1,4.15 5.6,-1.9 13.85,-1.85 8.85,0.05 14.9,2.55 5.6,-1.5 10,-2"
       id="path1" />
    <path
       fill="#76161b"
       d="m 31.45,57.3 q -9.8,-1.7 -15.75,3.45 -4.75,4.15 -5.3,10.35 -0.55,5.75 1.95,11 3.2,6.6 10.7,10.5 Q 13.6,90.65 9.05,83.1 4.4,75.3 7.4,65.35 q 2.05,-6.75 9.15,-9.2 7.2,-2.5 14.9,1.15"
       id="path2" />
    <path
       fill="#76161b"
       d="m 95,64.05 q -5.9,-5.55 -15.8,-4.9 8.3,-2.75 15.3,0 7.8,3 10.25,11.85 3.5,12.85 -6.65,21.25 -4.25,3.5 -9.75,4.95 -5.45,1.4 -10.3,0.25 Q 88.8,96.2 94.8,90.15 100.5,84.3 100.25,75.8 100.05,68.85 95,64.05"
       id="path3" />
    <path
       fill="#f4e8d0"
       d="m 92.6,62.15 q 7.5,5.05 7.65,14.95 0.1,7.5 -5.95,13.45 -6.25,6.15 -15.55,6.9 -2.75,-0.2 -5.85,-1.4 -3,-1.2 -4.55,-2.65 0.1,5.8 -1.25,15.45 -1.2,8.75 -2.85,15.5 -6.35,6.5 -11.15,12.55 -5.55,7 -8,12.15 -2.4,0.25 -6,1.35 -3.75,1.2 -6.45,2.65 -2.25,-4.1 -3.45,-15.5 -1,-9.25 -0.8,-15.95 1.55,-5.7 4.75,-28.05 -9.1,1.4 -16.25,-5.4 -7.25,-6.9 -6.5,-16.7 0.5,-6.9 6.4,-11.35 6.5,-4.9 15,-2.55 2,0.95 4.2,3.1 2.2,2.15 3.45,4.4 3.95,-2.95 7,-4.3 3.85,-1.7 7.75,-1.6 4,0.05 8.4,2.35 3.95,2 7.05,5.05 5.45,-5.9 9.55,-7.4 7,-1.35 13.4,3"
       id="path4" />
    <path
       fill="#ffe45f"
       d="m 45.75,42.9 1.7,6.4 q -4.55,-2.6 -8.2,0.05 -3.95,2.85 -4.25,10.3 -1.75,-1.5 -4.45,-2.85 0.2,-7.25 4.8,-11.55 4.65,-4.4 10.4,-2.35"
       id="path5" />
    <path
       fill="#4e5143"
       d="M 42.3,33.45 44,37.5 q -6.85,-0.8 -11.9,4.55 -5.05,5.3 -5.3,13.45 L 23.75,55 q -0.25,-6.45 4.6,-13.4 5.7,-8.15 13.95,-8.15"
       id="path6" />
    <path
       fill="#e50012"
       d="m 44,37.5 1.75,5.4 q -5.75,-2.05 -10.4,2.35 -4.6,4.3 -4.8,11.55 L 26.8,55.5 Q 27.05,47.35 32.1,42.05 37.15,36.7 44,37.5"
       id="path7" />
    <path
       fill="#e50012"
       d="m 39.45,65.05 q -1.7,-2.95 -4.45,-5.4 0.3,-7.45 4.25,-10.3 3.65,-2.65 8.2,-0.05 1.45,6.05 1.9,10.45 -2.2,0.55 -5.4,2.35 -2.9,1.6 -4.5,2.95"
       id="path8" />
    <path
       fill="#ffe45f"
       d="m 67.5,44.3 q 5.05,-0.1 8.4,4 3.5,4.35 3.05,11.05 L 75.5,61.2 Q 74.95,47.4 64.95,49.05 L 67.5,44.3"
       id="path9" />
    <path
       fill="#4e5143"
       d="M 88.05,57.65 84,57.9 q -0.1,-7.5 -3.6,-12.5 -3.85,-5.55 -10.3,-5.5 1.8,-2.9 3.4,-4.65 6.75,0.8 10.75,7.5 3.7,6.2 3.8,14.9"
       id="path10" />
    <path
       fill="#e50012"
       d="m 70.1,39.9 q 6.45,-0.05 10.3,5.5 3.5,5 3.6,12.5 -2.4,0.35 -5.05,1.45 0.45,-6.7 -3.05,-11.05 -3.35,-4.1 -8.4,-4 l 2.6,-4.4"
       id="path11" />
    <path
       fill="#e50012"
       d="M 75.5,61.2 Q 72.2,63.3 69.95,66.6 64.1,61.3 59.8,60.1 62.35,54.15 64.95,49.05 74.95,47.4 75.5,61.2"
       id="path12" />
    <path
       fill="#4e5143"
       d="m 46.25,60.8 q 3.8,-1.7 8.3,-1.55 4.2,0.1 7.5,1.7 1.05,1.5 -2.75,3.8 -3.7,2.2 -5.9,2 -2,-0.15 -4.95,-2.55 -2.95,-2.45 -2.2,-3.4"
       id="path13" />
    <path
       fill="#76161b"
       d="m 68.35,93.4 q 3,2.45 7.75,3.65 3.95,1 7.15,0.8 l 0.45,11.05 0.6,11.35 q -1.35,-2.05 -3.45,-4.25 -2.4,-2.4 -3.35,-2.3 -1.9,0.25 -6.8,4.55 -3.4,2.95 -7,6.65 2.25,-5.65 3.65,-17.65 1.1,-9.5 1,-13.85"
       id="path14" />
    <path
       fill="#76161b"
       d="m 69.65,148.45 q 0.95,-2.55 2.7,-5.1 2.25,-3.3 4.05,-3.5 1.75,-0.2 5.85,6.4 2.55,4.15 4.7,8.5 0.55,8.7 4.45,38.8 3.55,27.55 5.75,41.6 1.5,9.75 1.3,14.55 -0.25,7.75 -3.85,15.95 -2.35,5.35 -9.5,13.75 -6.65,7.8 -10.65,10.65 l -3.95,2.2 q -3.45,1.7 -4.55,2.4 -0.65,-1.3 -1.25,-3.55 -0.65,-2.55 -0.8,-4.65 -2.95,1.05 -6.45,5.55 0.7,-7.8 -4.25,-11.85 -2.9,-2.35 -6.45,-6.45 -1.95,2.75 -6.25,6.55 -4,3.5 -7.35,5.65 -0.25,-1.9 -1.7,-5.65 l -3.2,2.8 -3.4,2.4 Q 11.35,268.6 5.9,253.65 1,240.15 1.2,223.6 q 0.15,-7.9 4.5,-23.5 3.25,-11.55 8.35,-25.8 -4.9,1.2 -6.7,-0.6 -1.1,-1.1 -1.2,-3.9 -0.55,-12.25 6.6,-24.5 6.2,-10.6 14,-15.3 l -4.2,17.7 q 1.8,0.4 5.25,2.7 1.85,1.25 4.55,3.25 l 20.7,0.15 q 8.15,-2.95 16.6,-5.35"
       id="path15" />
    <path
       fill="#76161b"
       d="m 129.3,69.3 q 0.85,13.05 0.8,30.65 0,15.4 -0.65,26.7 -1.3,24 -6.4,48.8 -8.45,41 -24.75,68.55 -0.2,-3.05 -2.1,-16 l -2.5,-16.5 q 7.45,-14.15 13.7,-45.7 4.7,-24.05 6.1,-41.45 2.6,-32.85 1.4,-55.05 2.85,1.65 7.35,1.8 4.9,0.15 7.05,-1.8"
       id="path16" />
    <path
       fill="#ffe45f"
       d="m 129.6,78.25 q 0.7,13.95 0.55,21.6 -2.9,2 -7.05,2.25 -5.05,0.35 -7.9,-2.7 0.35,-14.85 0,-21.4 2.5,1.9 6.65,2.2 4.6,0.3 7.75,-1.95"
       id="path17" />
    <path
       fill="#ffe45f"
       d="m 129,131.25 q -2.75,2.35 -7.8,2.45 -5.45,0.1 -8.05,-2.9 l 1.75,-23 q 2.1,2.95 6.95,3.3 4.95,0.35 8.2,-2.4 0,5.75 -1.05,22.55"
       id="path18" />
    <path
       fill="#ffe45f"
       d="m 76.4,139.85 q -1.65,0.25 -3.95,3.6 -1.2,1.75 -3.15,5.35 -2.15,0.45 -8.1,2.3 l -8.15,2.7 q -4.3,-5.35 -7.55,-4.85 2.6,-7.55 16.1,-21.65 12.8,-13.45 15.9,-13.6 0.95,-0.05 3.35,2.3 l 3.2,3.45 q 0.4,6.1 1.55,18.75 l 1.75,17.7 q -2.05,-4.75 -5.3,-9.95 -3.95,-6.3 -5.65,-6.1"
       id="path19" />
    <path
       fill="#ffe45f"
       d="m 28.45,120.85 q -0.1,6.3 0.8,15.55 1.25,12.25 3.6,17.75 l -5.3,-4.25 q -2.95,-2.05 -5,-2.2 l 2.95,-12.65 2.95,-14.2"
       id="path20" />
    <path
       fill="#ffe45f"
       d="m 7.2,194.1 2.95,-8.65 Q 12.2,179.7 13.2,178 l 4.45,1.8 1,-6.6 2.35,-0.75 2.5,-1.15 q 2.6,3.6 6.05,6.75 3.4,3.1 5.9,4.3 l 7.8,0.25 9.6,-1.4 -1.25,4.6 q 6.3,1.45 19.8,-0.95 13.35,-2.4 18.15,-5.7 l 1.15,9.2 0.9,8.15 q -7.15,4.45 -18.6,6.95 -11.3,2.5 -23.6,2.45 -28.35,-0.1 -42.2,-11.8"
       id="path21" />
    <path
       fill="#ffe45f"
       d="m 92.9,206.15 q 0.8,6.45 2.95,20.6 -8.2,4.4 -21.75,6.55 -13.2,2.15 -27.4,1.55 -14.85,-0.6 -26.4,-4 -12.7,-3.7 -18.75,-10.05 0,-3.45 1.15,-9.6 1,-5.5 2.05,-8.85 4.5,5.1 15,8.5 10.25,3.25 23.25,4.05 29.8,1.85 49.9,-8.75"
       id="path22" />
    <path
       fill="#ffffff"
       d="m 46.1,80.95 q 4.75,-7.15 7.1,-7.35 1.45,-0.05 4.1,2.4 2.35,2.2 4.35,5.1 -1.3,2.35 -3.85,5.25 -2.75,3.1 -3.9,3.15 -1.1,0.1 -3.75,-2.85 -2.55,-2.85 -4.05,-5.7"
       id="path23" />
    <path
       fill="#ffffff"
       d="m 34.25,152.3 q 2.7,-1.25 6.05,-2.25 4.2,-1.2 6.3,-0.9 2.15,0.3 5.15,3.4 2.65,2.8 4.1,5.65 -3.1,-0.45 -5.65,-0.1 l 1,5.2 q -2,-1.35 -8.45,-4.25 0.15,1.85 -0.35,5.7 -2.2,-2.75 -8.5,-9.35 -0.8,-0.85 -0.65,-1.75 0.15,-0.9 1,-1.35"
       id="path24" />
    <path
       fill="#ffffff"
       d="m 142.55,23.8 -5.05,6.1 q 4.15,1.6 8.45,2.05 -1.75,2.3 -7.65,7.65 -5.65,5.15 -7.75,6.45 -2.5,1.65 -2.3,4.4 l 1.1,19.2 q -2.8,1.3 -6.55,1.45 -4.75,0.25 -7.65,-1.85 -1.2,-13.75 -3.1,-27.35 -2.5,-17.8 -4.75,-23.65 1.15,0.3 2.65,1.45 1.85,1.35 2.95,3.05 1.05,-5.15 2.8,-9.4 1.7,-4.1 3.65,-6.25 l 1.8,3.6 1.8,4.15 q 6.45,-9 13.7,-13.5 L 135.6,9.4 q -0.7,6.6 -0.7,9.05 2.35,-0.75 6.15,-1.2 l 6.65,-0.5 -5.15,7.05"
       id="path25" />
    <path
       fill="#ffffff"
       d="m 39.85,280.9 q -1.75,4.9 -2.25,13 -0.4,6.85 0.2,10.85 0.2,1.4 -0.4,2.3 -0.55,0.8 -1.85,1.35 -4.45,2.05 -10.75,4 -7.1,2.2 -7.65,1.2 -0.25,-0.45 0.55,-2.05 0.75,-1.55 1.75,-2.8 -4.1,1.4 -6.55,1.8 -2.4,0.35 -2.65,-0.35 -0.2,-0.5 0.65,-1.9 0.8,-1.3 1.9,-2.35 l -2.2,-0.15 q -1.1,-0.3 -1.3,-0.95 -0.2,-0.65 5.8,-4.45 6.45,-4.1 7.1,-5.05 0.6,-0.8 0.4,-5.8 l -0.5,-7.7 3.15,3.5 q 2.8,-1.6 6.2,-5.1 1.15,2.25 1.95,5.8 3,-1.95 6.45,-5.15"
       id="path26" />
    <path
       fill="#ffffff"
       d="m 57.55,292.25 q 1.05,-1.9 3.1,-3.7 1.75,-1.55 3.25,-2.25 0.05,1.8 0.8,4.5 0.65,2.35 1.4,4.05 1.5,-1.4 5.2,-3.4 l 4.9,-2.55 q -3.5,5.3 -5.65,14.55 -1.85,8.1 -1.5,12.7 0.15,1.75 -0.3,2.65 -0.5,1 -2.05,1.7 -1.5,0.7 -5.6,1.5 l -6.1,0.9 q -2.45,0.15 -1.5,-2.4 -2.85,1.45 -6.35,2.25 l -3.45,0.3 q -0.3,-0.25 -0.25,-1.05 0.1,-0.75 0.45,-1.4 -1.85,0.2 -3.85,0 -2.3,-0.2 -2.4,-0.75 -0.15,-1 6.85,-6.65 8,-6.4 9.05,-7.75 1,-1.25 2.2,-5.8 l 1.8,-7.4"
       id="path27" />
    <path
       fill="#ffffff"
       d="m 21.65,147.75 q 2.2,0.05 3.8,1 -3.45,0.25 -5.85,1.9 -2.55,1.7 -3.45,4.65 -0.45,-2.1 -0.05,-4.1 0.5,-2.2 1.9,-2.85 1.6,-0.65 3.65,-0.6"
       id="path28" />
    <path
       fill="#0d131a"
       d="m 44.05,54.3 q 1,0 1.65,1.1 0.7,1.1 0.75,2.95 0,1.4 -0.45,2.35 -0.3,0.75 -1.6,1.2 l -1.45,0.2 Q 41.5,61 41.6,58.2 q 0.05,-1.9 0.8,-2.95 0.65,-1 1.65,-0.95"
       id="path29" />
    <path
       fill="#0d131a"
       d="m 67,55.9 q 1,0 1.65,1.15 0.65,1.15 0.7,3 0.05,1.95 -0.6,3.1 -0.65,1.15 -1.65,1.15 -0.9,0 -1.6,-1.1 -0.8,-1.2 -0.85,-3.05 -0.05,-1.9 0.6,-3.1 Q 65.9,55.9 67,55.9"
       id="path30" />
    <path
       fill="#c6000b"
       d="m 43.9,37.5 1.55,5.05 -1.5,-0.25 -1.2,-4.85 1.15,0.05"
       id="path31" />
    <path
       fill="#c6000b"
       d="m 45.3,48.35 1.95,1 2.15,10.3 -2.3,0.8 Q 46.9,56 45.3,48.35"
       id="path32" />
    <path
       fill="#3b3e33"
       d="m 42.3,33.4 1.6,4.1 -1.15,-0.05 -1.05,-4.05 h 0.6"
       id="path33" />
    <path
       fill="#dcc552"
       d="m 45.45,42.55 1.8,6.8 -1.95,-1 -1.35,-6.05 1.5,0.25"
       id="path34" />
    <path
       fill="#c6000b"
       d="M 64.75,49.35 67.35,49 q -3.6,7.8 -4.8,12.05 l -3.1,-1.1 5.3,-10.6"
       id="path35" />
    <path
       fill="#c6000b"
       d="m 70.2,39.95 1.45,0.05 -2.15,4.45 -1.9,-0.2 2.6,-4.3"
       id="path36" />
    <path
       fill="#3b3e33"
       d="M 73.9,35.45 71.65,40 70.2,39.95 l 3.1,-4.6 0.6,0.1"
       id="path37" />
    <path
       fill="#dcc552"
       d="m 64.75,49.35 2.85,-5.1 1.9,0.2 -2.15,4.55 -2.6,0.35"
       id="path38" />
    <path
       fill="#dbdcdc"
       d="m 48,83.45 q 1.35,1.35 3.35,2.45 1.75,1 2.35,1 0.95,-0.05 2.7,-0.9 1.6,-0.8 2.95,-1.8 l -2.9,3.4 q -1.95,1.95 -2.75,1.9 -0.85,-0.05 -2.7,-2.05 -1.75,-1.9 -3,-4"
       id="path39" />
    <path
       fill="#5c070c"
       d="m 105,72.4 q 1.85,13.05 -7.1,20.05 -7.55,5.95 -18.35,5.2 5.85,-1.3 10.45,-4.05 4.75,-2.85 7.3,-6.75 3.5,-3.1 5.5,-6.8 2.1,-3.8 2.2,-7.65"
       id="path40" />
    <path
       fill="#d3c9b5"
       d="m 97.3,86.85 q -2.55,3.9 -7.3,6.75 -4.6,2.75 -10.45,4.05 -4.05,-0.25 -7.25,-1.6 -3.3,-1.4 -4.9,-3.6 7.95,3.05 16.35,1.2 7.7,-1.7 13.55,-6.8"
       id="path41" />
    <path
       fill="#5c070c"
       d="m 11.85,80.8 q 3.1,7.2 10.5,12.1 -7.45,-2.1 -11.75,-7.55 -5,-6.3 -4.35,-15.65 1.2,6.1 5.6,11.1"
       id="path42" />
    <path
       fill="#d3c9b5"
       d="m 39.25,91.45 q -3.3,1.9 -7.8,2.3 -4.55,0.4 -9.1,-0.85 -7.4,-4.9 -10.5,-12.1 4.8,5.6 11.95,8.5 7.5,3.05 15.45,2.15"
       id="path43" />
    <path
       fill="#d3c9b5"
       d="m 32.9,94.8 0.15,-1.45 3.2,-0.75 3,-1.15 q 2.5,-1.35 3.05,-0.55 3,4.05 9.95,4.75 7.6,0.75 13.35,-3.8 0.25,-0.2 0.85,0 0.6,0.2 0.95,0.6 l 1.05,0.95 q -0.05,6.15 -1.15,13.75 -11.8,0.5 -20.85,-2.45 -10,-3.25 -13.55,-9.9"
       id="path44" />
    <path
       fill="#5c070c"
       d="m 68.45,93.4 q 2.85,2.35 6.9,3.5 3.9,1.1 7.95,0.9 l 0.15,5.45 q -7.15,3.5 -16.15,3.9 1.1,-7.6 1.15,-13.75"
       id="path45" />
    <path
       fill="#5c070c"
       d="m 6.15,167.4 q 1.6,3.4 4.3,3.1 5.6,-0.6 10.65,-3 l 2.3,3.6 q -2.1,1 -6.5,2.2 l -5.95,1.25 q -2.7,0.2 -3.85,-1.6 -1.1,-1.7 -0.95,-5.55"
       id="path46" />
    <path
       fill="#5c070c"
       d="m 15.8,153.35 q 2.05,6.65 9.15,14.65 7,7.85 12,9.4 5.3,1.7 15.35,0.9 9.7,-0.75 17.45,-3.3 -4.8,2.95 -15.7,5.55 -12,2.9 -18.35,1.8 -3.65,-0.6 -10.75,-9.15 -8.35,-10.15 -9.15,-19.85"
       id="path47" />
    <path
       fill="#5c070c"
       d="m 21.45,242.8 q 1.75,3.05 6.55,6.55 5.7,4.15 10.55,4.35 0,3.25 2.45,9.85 2.7,7.4 5.75,10.25 -2.4,2.7 -6.55,6.6 -4.8,4.5 -6.85,5.6 -0.85,-3.8 -1.75,-5.8 l -6.55,5.25 q -10.4,-11.75 -17.15,-27 -6.5,-14.75 -6.75,-26 2,3.9 8.6,7.15 6.4,3.2 11.7,3.2"
       id="path48" />
    <path
       fill="#5c070c"
       d="m 95.7,227.35 1.3,7.9 q 2,9.15 1.4,17 -0.7,9.65 -5.3,16.4 -4.3,6.3 -9.65,12.5 -6.25,7.25 -9.5,9.05 -6.65,3.45 -7.9,4.55 l -1.35,-4.25 -0.8,-4.25 q -3.95,2.2 -6.25,5.3 0.3,-8.15 -4.9,-11.65 -4.05,-2.65 -8.5,-9.7 -5.25,-8.35 -5.6,-15.75 5.6,4.7 12.65,5.3 6.85,0.6 13.8,-2.75 15.2,-7.3 22.45,-27 l 8.15,-2.65"
       id="path49" />
    <path
       fill="#dcc552"
       d="m 92.9,206.35 2.8,21 -8.15,2.65 q 3.95,-10.65 4.4,-23.15 l 0.95,-0.5"
       id="path50" />
    <path
       fill="#dbdcdc"
       d="m 21.65,281.05 1.9,2.4 1.8,1.85 q 4,-2.9 6,-5.05 1.55,3.65 1.75,5.85 4.25,-2.95 6.8,-5.4 -1.35,2.55 -2.1,11.45 -0.7,8.7 0,12.3 0.35,1.65 -0.4,2.7 -0.65,0.85 -2.2,1.5 -5.45,2.35 -10.5,3.85 -6.95,2.15 -7.35,0.65 3.75,-1.3 7.1,-3.75 3.2,-2.35 3.6,-3.85 0.55,-2.1 -1.95,-5.15 -2.5,-3.05 -5.15,-3.6 l 1.35,-1.75 0.4,-2.2 -0.25,-5.1 -0.8,-6.7"
       id="path51" />
    <path
       fill="#dbdcdc"
       d="m 9.4,304.3 2.7,0.05 q 2.2,-0.25 3.6,-0.85 l -2.5,2.2 -3.3,-0.25 Q 8.9,305 9.4,304.3"
       id="path52" />
    <path
       fill="#dbdcdc"
       d="m 11,308.8 q 0.3,0.55 4.85,-0.8 4.4,-1.3 6.2,-2.4 l -2.5,3 -4.55,1.45 -3.35,0.7 q -0.85,0.05 -1.15,-0.5 -0.35,-0.6 0.5,-1.45"
       id="path53" />
    <path
       fill="#dbdcdc"
       d="m 56.55,296.25 0.95,-4.3 q 0.95,-1.4 2.9,-3.1 1.9,-1.7 3.5,-2.6 0.2,3.65 2.05,8.7 5.9,-4 9.8,-5.55 -3.15,5.05 -5.05,13.25 -1.75,7.45 -1.6,13.2 0.05,1.75 -0.45,2.85 -0.55,1.25 -1.95,1.9 -1.4,0.65 -5.65,1.5 l -5.5,0.9 q -1.25,0.15 -1.75,-0.4 -0.5,-0.45 -0.15,-1.1 4.65,-0.5 8.15,-2.65 3.95,-2.4 4.35,-5.85 0.75,-6.8 -1.9,-11.8 -2.8,-5.25 -7.7,-4.95"
       id="path54" />
    <path
       fill="#dbdcdc"
       d="m 57.6,314.7 q -2.85,3 -4.05,5.95 -5.1,1.95 -6.95,2.35 -3.9,0.8 -2.95,-1.75 0.8,0.75 6.15,-1.7 5.35,-2.4 7.8,-4.85"
       id="path55" />
    <path
       fill="#dbdcdc"
       d="m 44.2,320.4 q -2.55,0.45 -4.75,0.05 -2.4,-0.45 -1.55,-1.75 l 3.7,-0.25 q 3.05,-0.75 5.2,-2.05 l -2.6,4"
       id="path56" />
    <path
       fill="#dcc552"
       d="m 40.4,186.4 -6.8,-0.3 q -4.2,-1 -10.8,-7.6 -4.15,1.5 -10.95,2.9 l 2.1,-7.2 4.7,-1.15 4.85,-1.6 q 3.1,4.1 5,6 3.65,3.75 7.2,4.9 5.15,1.7 17.1,-1.2 l -1,3.55 q -5.55,1.4 -11.4,1.7"
       id="path57" />
    <path
       fill="#5c070c"
       d="m 69.75,175 q -5.9,6.7 -17.95,9.7 l 1,-3.55 q 4.85,-1.15 9.4,-2.75 4.55,-1.7 7.55,-3.4"
       id="path58" />
    <path
       fill="#5c070c"
       d="m 13.95,174.2 4.65,-0.95 q -0.5,4.2 -1.25,6.7 l -4.25,-2 0.85,-3.75"
       id="path59" />
    <path
       fill="#5c070c"
       d="m 126.8,153.75 q -1.3,18.75 -11.55,50.6 -9.8,30.5 -16.6,39.65 L 96.1,227.8 93.7,212.25 q 2.35,-5.3 5.35,-13.6 9.5,-2.4 17.9,-16.9 7.65,-13.3 9.85,-28"
       id="path60" />
    <path
       fill="#dbdcdc"
       d="m 119.6,7.5 q -1.55,3.75 -2.65,8.4 -1.05,4.4 -1.3,7.75 -0.05,0.7 -0.85,1 -0.75,0.3 -1.15,-0.2 l -0.7,-1.25 q 0.9,-4.65 2.6,-9.15 2.15,-5.6 4.05,-6.55"
       id="path61" />
    <path
       fill="#dbdcdc"
       d="m 136.4,1.5 -0.85,8.85 -0.6,8.35 -2.1,0.65 -0.95,-0.2 q -0.4,-0.3 -0.3,-0.9 l 2,-8.4 q 1.65,-6.35 2.8,-8.35"
       id="path62" />
    <path
       fill="#dbdcdc"
       d="m 147.55,17 q -4.4,6.1 -10.2,13.1 l -0.95,-0.3 q -1,-0.35 -1.15,-1.05 -0.2,-0.75 0.7,-1.75 7.55,-8 11.6,-10"
       id="path63" />
    <path
       fill="#dbdcdc"
       d="m 107.85,18.7 q 2.7,2.95 4.15,11.85 1.2,7.65 1.3,18.1 L 110.75,32.3 q -1.85,-10.65 -2.9,-13.6"
       id="path64" />
    <path
       fill="#dbdcdc"
       d="m 145.6,31.85 q -1.35,2.35 -7.25,7.65 l -7.45,6.3 q -0.75,0.55 -1.75,2.4 l -1.3,2.5 q -0.95,-1.65 -0.65,-3.8 0.25,-2.4 2,-3.35 l 8.05,-5.55 8.35,-6.15"
       id="path65" />
    <path
       fill="#dbdcdc"
       d="m 34.35,152.45 q 1.95,1.3 4.3,4.6 2.65,3.7 3.65,7.2 l -8.1,-8.55 q -0.95,-0.95 -1.05,-1.65 -0.1,-0.9 1.2,-1.6"
       id="path66" />
    <path
       fill="#dbdcdc"
       d="m 42.75,156.15 q 1.95,0.7 4.25,2.4 2.8,2.1 4.15,4.45 -1.25,-0.9 -3.95,-2.15 -2.9,-1.4 -4.25,-1.65 l -0.2,-3.05"
       id="path67" />
    <path
       fill="#dbdcdc"
       d="m 48.65,154.3 q 1.2,0.45 3.45,1.65 l 3.25,1.95 q -2.7,-0.25 -5.05,0.05 -0.65,-1.9 -1.65,-3.65"
       id="path68" />
    <path
       fill="#0d131a"
       d="M 87.25,43.5 Q 87.1,43.35 87.1,43.05 88.05,36.95 87.7,31.25 87.6,29.5 87.1,28.85 86.5,28.2 84.85,28.25 78,28.65 70.3,30.95 L 68.9,30.9 q -0.15,-0.4 1.05,-0.95 3.15,-1.35 7.25,-2.3 4.15,-0.95 7.65,-1.15 2.45,-0.1 3.5,1 0.95,1 1.15,3.55 0.25,3.55 -1.05,11.75 2.5,2.65 3.75,7.55 1.15,4.6 0.6,8.3 L 90.7,58.1 Q 91.35,54.6 90.3,50 89.25,45.3 87.25,43.5"
       id="path69" />
    <path
       fill="#0d131a"
       d="m 42.9,28.25 q 6.8,-2.55 15,-2.15 8.1,0.35 14.75,3.35 l -1.7,0.7 q -5.8,-1.95 -14,-2.1 -8.7,-0.15 -14.05,1.9 L 42.4,29.9 q -5,-3.6 -9.65,-5.3 L 29.9,24.45 q -0.95,0.45 -1.3,2.25 -1,5.35 -0.65,11.8 l -1.45,1.35 q -0.45,-8.05 0.35,-13.55 0.45,-2.9 2.1,-3.7 1.5,-0.75 4.3,0.3 4.45,1.6 9.65,5.35"
       id="path70" />
    <path
       fill="#0d131a"
       d="m 22.35,45.15 q 2.35,-5.5 5.9,-7.8 0.85,-0.55 1.15,-0.15 0.3,0.35 -0.5,0.95 -2.85,2.35 -4.85,7.35 -1.9,4.75 -2.15,9.45 l -1.85,0.1 q 0.25,-5 2.3,-9.9"
       id="path71" />
    <path
       fill="#0d131a"
       d="m 61.3,60.75 1.25,0.5 q 0.3,0.5 0.1,1.2 -0.2,0.65 -0.75,1.15 -1.5,1.35 -4.05,2.65 -2.85,1.45 -4.45,1.4 -1.35,-0.05 -3.9,-1.8 -2.4,-1.7 -3.5,-3.2 -0.6,-0.8 -0.25,-1.55 l 1.15,-0.55 q -0.15,0.25 -0.05,0.75 l 0.2,0.6 q 0.95,1.2 3.35,2.6 2.25,1.35 3,1.3 1.35,-0.05 3.9,-1.1 2.5,-1.05 3.7,-2.05 l 0.55,-1 q 0.1,-0.6 -0.25,-0.9"
       id="path72" />
    <path
       fill="#0d131a"
       d="m 38.7,66.65 q -0.85,0.75 -1.15,0.45 -0.35,-0.35 0.4,-1.2 3.4,-3.8 7.8,-5.8 4.35,-2 8.95,-1.85 4.65,0.2 8.95,2.55 4.35,2.4 7.4,6.45 0.65,0.9 0.3,1.2 -0.35,0.3 -1.1,-0.5 -7.2,-7.6 -15.6,-7.9 -8.5,-0.3 -15.95,6.6"
       id="path73" />
    <path
       fill="#0d131a"
       d="m 65.85,45.55 q 4.85,-8.35 8,-11.7 0.95,-0.95 1.3,-0.65 0.35,0.3 -0.5,1.35 -2.7,3.3 -7.25,11.7 -4.35,8.05 -6.8,14 l -1.75,-0.6 q 2.25,-5.9 7,-14.1"
       id="path74" />
    <path
       fill="#0d131a"
       d="m 51.4,49.1 q 0.25,-1.1 0.7,-1 0.45,0.1 0.3,1.2 -0.65,4.6 -0.95,10.2 L 49.8,59.6 Q 50.1,55 51.4,49.1"
       id="path75" />
    <path
       fill="#0d131a"
       d="M 45.55,45.4 Q 43.4,37.4 41.1,32.25 40.6,31 41,30.8 q 0.45,-0.2 1.05,1 2.4,4.55 4.9,13 2.3,7.85 3.35,14.6 l -1.75,0.5 q -0.85,-6.6 -3,-14.5"
       id="path76" />
    <path
       fill="#0d131a"
       d="m 40.15,64.5 q -0.55,0.45 -1.15,0.85 -2.1,-3.9 -6.6,-6.5 -4.35,-2.55 -9.25,-2.8 -6.6,-0.35 -11.1,4.05 -5,4.95 -4.6,13.8 0.5,11.4 11.5,16.6 10.3,4.85 19.75,0.65 l 1.2,0.05 q 0.2,0.4 -0.7,0.9 -4.55,2.45 -10.35,2.4 -5.65,0 -10.8,-2.45 -12,-5.6 -12.6,-18.1 -0.45,-10 5.35,-15.5 5.05,-4.75 12.5,-4.4 5.45,0.3 10.15,3.35 4.4,2.85 6.7,7.1"
       id="path77" />
    <path
       fill="#0d131a"
       d="m 30.8,56.8 2.85,2.45 q -8.05,-4 -15.4,0.55 -7.4,4.6 -7.05,13.75 0.25,7.2 4.55,12.5 4.35,5.4 11.7,7.4 L 23.5,93.25 Q 17.2,90.65 13.4,85.5 9.55,80.25 9.3,73.65 8.95,64.35 15.95,59.35 22.6,54.6 30.8,56.8"
       id="path78" />
    <path
       fill="#0d131a"
       d="m 92.25,57.45 q 6.4,1.6 10.15,6.5 4.15,5.4 3.85,13.4 -0.3,7.7 -5.05,13.1 -4.25,4.85 -11,6.95 -6.45,1.95 -12.8,0.8 -6.5,-1.15 -10.2,-5.1 -0.7,-0.75 -0.35,-1.1 0.35,-0.3 1.1,0.4 3.6,3.25 9.65,4.2 6,0.95 11.85,-0.75 6.3,-1.9 10.15,-6.3 4.4,-5 4.65,-12.3 0.3,-7.15 -3.5,-12.1 -3.4,-4.45 -9.2,-5.95 -5.65,-1.45 -11.35,0.55 -6,2.1 -9.85,7.35 L 69.2,65.95 q 4.05,-5.65 10.65,-7.9 6.2,-2.15 12.4,-0.6"
       id="path79" />
    <path
       fill="#0d131a"
       d="M 92.15,91.35 Q 99.95,85.1 99.4,75.2 98.95,67.65 92.45,63.2 86.1,58.85 77.9,60 l 2.35,-1.4 q 8.5,-0.45 14.4,4.1 6.05,4.65 6.45,12.45 0.45,9.25 -6,15.6 -6.25,6.2 -16.25,7 l -3.4,-0.9 q 9.65,0.15 16.7,-5.5"
       id="path80" />
    <path
       fill="#0d131a"
       d="m 41.4,87.5 q 2.1,-4.65 5.75,-9.55 3.9,-5.3 5.85,-5.4 2.4,-0.15 7.2,5.55 4.85,5.7 6.45,10.6 0.4,1.1 -0.1,1.25 -0.45,0.15 -0.85,-0.9 -1.7,-4.2 -6.35,-9.45 -4.5,-5.15 -6.2,-5.05 -1.35,0.1 -5.05,4.8 -3.55,4.5 -5.75,8.6 -0.55,0.95 -1,0.75 -0.4,-0.2 0.05,-1.2"
       id="path81" />
    <path
       fill="#0d131a"
       d="m 53.95,73.65 h -1.5 q -0.15,-3.3 0.2,-6.85 l 1.5,0.1 q -0.35,4.05 -0.2,6.75"
       id="path82" />
    <path
       fill="#0d131a"
       d="m 53.7,88.7 q 0.95,0 3.45,-2.8 2.35,-2.7 4,-5.45 l 0.9,1.4 q -1.65,2.65 -4,5.3 -2.95,3.4 -4.4,3.4 -1.15,0 -3.95,-3.2 -2.7,-3.1 -4,-5.7 l 0.95,-1.45 q 1.2,2.5 3.85,5.55 2.45,2.85 3.2,2.95"
       id="path83" />
    <path
       fill="#0d131a"
       d="m 41.85,91.25 q -0.6,-0.85 -0.25,-1.15 0.4,-0.25 1.05,0.55 3.05,3.5 9.5,4.2 L 59.2,94.4 q 3.35,-0.85 5.8,-2.7 0.85,-0.65 1.15,-0.25 0.3,0.35 -0.5,1.05 -2.45,2.3 -6.15,3.45 -3.75,1.15 -7.6,0.75 -3.25,-0.35 -5.9,-1.8 -2.65,-1.45 -4.15,-3.65"
       id="path84" />
    <path
       fill="#0d131a"
       d="M 41.9,32.9 42.5,34 Q 35.65,33.8 30.25,40.1 24.9,46.4 24.4,55.05 l -1.2,-0.1 q 0.55,-9.2 5.85,-15.5 Q 34.4,33 41.9,32.9"
       id="path85" />
    <path
       fill="#0d131a"
       d="m 43.7,37.2 0.35,1.25 Q 37.65,37.2 32.6,42.4 27.55,47.6 27.45,55.65 l -1.2,-0.2 Q 26.2,46.85 31.65,41.35 36.95,36 43.7,37.2"
       id="path86" />
    <path
       fill="#0d131a"
       d="m 45.25,42.1 0.35,1.4 Q 40.75,41.4 35.85,45.75 30.8,50.2 31.2,57.2 l -1.15,-0.5 q -0.15,-8.15 5.2,-12.45 4.85,-3.95 10,-2.15"
       id="path87" />
    <path
       fill="#0d131a"
       d="m 39.75,49.9 q -4.4,3.2 -4.2,10.15 l -1.2,-0.9 q -0.05,-7.55 4.7,-10.8 4.45,-3.05 8.05,0.3 l 0.35,2.05 q -3.4,-3.95 -7.7,-0.8"
       id="path88" />
    <path
       fill="#0d131a"
       d="m 75.95,60.8 -1.15,0.85 q 0.25,-7 -3,-10.15 -3.05,-3 -7.4,-1.1 l 0.65,-1.45 Q 69.4,47.3 72.5,50 q 3.6,3.15 3.45,10.8"
       id="path89" />
    <path
       fill="#0d131a"
       d="m 67.35,44.9 0.6,-1.2 q 5.35,-0.25 8.7,3.85 3.6,4.4 2.85,11.5 l -1.05,0.45 q 0.7,-6.95 -3,-11.2 -3.35,-3.9 -8.1,-3.4"
       id="path90" />
    <path
       fill="#0d131a"
       d="M 84.35,58 83.2,58.1 Q 83.45,50.55 79.55,45.35 75.6,40.1 69.85,40.6 l 0.55,-1.2 q 6.6,-0.35 10.5,5.2 3.75,5.3 3.45,13.4"
       id="path91" />
    <path
       fill="#0d131a"
       d="M 88.4,57.8 87.3,57.75 Q 87.65,49.65 83.9,43.4 79.75,36.5 72.85,36.05 L 73.65,35 q 7.3,0.8 11.35,7.4 3.85,6.3 3.4,15.4"
       id="path92" />
    <path
       fill="#0d131a"
       d="m 13.1,174.3 2.3,-0.35 -6.2,18.2 q -8.25,23.3 -6.65,41.95 2.2,26.1 22.85,50.25 3.6,-2.6 5.75,-4.95 l 0.5,-0.15 0.35,0.35 q 1,2.55 1.65,5.25 3.45,-2.4 7,-5.9 3.35,-3.3 5.35,-6.1 l 1.2,1.7 q -2.5,3.05 -6.2,6.35 -3.9,3.5 -7.65,5.9 -0.65,0.45 -0.8,-0.35 -0.5,-2.7 -1.4,-5.2 -2.8,3.15 -5.4,4.9 l -0.7,0.35 -0.55,-0.45 q -21.4,-24.8 -24.1,-51.2 -1.95,-19.4 6.5,-43.2 l 6.2,-17.35"
       id="path93" />
    <path
       fill="#0d131a"
       d="m 31.8,93.75 2.35,-0.4 q -1.05,10.2 -4.75,28.05 -2.85,13.75 -6.05,26.5 l -2.1,-0.3 q 3,-11.65 5.85,-25.4 3.65,-17.8 4.7,-28.45"
       id="path94" />
    <path
       fill="#0d131a"
       d="m 20.9,280.3 1.8,1.95 q 0.65,3.7 0.75,7.85 0.15,4.55 -0.5,5.6 -0.8,1.25 -7.05,5.05 -5.85,3.6 -5.75,4.05 l 1.2,0.35 2.65,-0.2 -1.5,1.55 -2.7,-0.2 q -1.3,-0.4 -1.4,-1.25 -0.2,-1.25 5.8,-4.95 6.55,-4.05 7.25,-5.1 0.6,-0.95 0.45,-5.3 -0.2,-4.15 -1,-9.4"
       id="path95" />
    <path
       fill="#0d131a"
       d="m 10.8,307.2 q 1.9,-2.25 4.25,-3.65 0.95,-0.55 1.25,-0.2 0.25,0.35 -0.6,1.05 -1.8,1.4 -3.35,3.2 -1.6,1.85 -1.4,2.25 l 3.25,-0.25 q 3.25,-0.75 6.2,-2.05 l -1.15,1.85 q -2.8,1.2 -5.7,1.85 -3.7,0.75 -4.25,-0.3 -0.65,-1.25 1.5,-3.75"
       id="path96" />
    <path
       fill="#0d131a"
       d="M 36.7,291.85 Q 37.25,285.9 39,281.7 l 2.1,-1.75 q -1.8,3.65 -2.55,11.6 -0.7,7.65 0.1,13.5 0.4,2.85 -2.15,3.9 -5.95,2.45 -11.05,4.1 -7.9,2.5 -9.1,1.45 -1.05,-0.95 1.1,-4.1 1.75,-2.6 4.1,-4.7 0.65,-0.6 1,-0.25 0.35,0.35 -0.25,0.95 -1.75,1.95 -3.15,4.05 -1.45,2.2 -1.2,2.65 0.3,0.65 7.15,-1.6 6.5,-2.1 10.8,-4.1 l 0.95,-0.65 q 0.3,-0.55 0.15,-1.6 -0.9,-7.1 -0.3,-13.3"
       id="path97" />
    <path
       fill="#0d131a"
       d="m 56.95,291 1.4,0.6 q -2.8,12.05 -4.2,14.4 -0.5,0.85 -8.35,7.1 -7.45,5.9 -7.25,6.45 0.15,0.45 2.15,0.45 l 4.1,-0.4 -0.9,1.5 -4.4,0.2 q -2.45,-0.25 -2.7,-1.35 -0.3,-1.2 6.95,-7.25 l 8.7,-7.7 q 1,-1.35 2.25,-5.35 L 56.95,291"
       id="path98" />
    <path
       fill="#0d131a"
       d="m 82.35,97.8 2.5,-0.1 q -0.05,24.7 4.6,69.15 4.3,41.45 9.55,71.9 1.35,7.95 0.7,14.35 -0.7,6.35 -3.5,12.1 -4.95,10.1 -16.65,21.8 -3.6,3.6 -6.2,4.65 -3.4,1.35 -6.8,3.85 l -0.85,0.4 q -0.3,-0.05 -0.5,-0.6 -1.5,-3.9 -1.95,-7.9 -2.8,1.55 -5.2,5.15 -0.45,0.7 -0.85,0.6 -0.4,-0.1 -0.4,-0.95 0.1,-5.15 -1.45,-8.25 -0.55,-1 -3.25,-3.05 -5.75,-4.55 -9.85,-11.85 -4.05,-7.3 -4.75,-14.3 -5.65,-1.35 -10.05,-4.6 -4.15,-3.05 -6.3,-7 -0.4,-0.75 -0.05,-1 0.4,-0.3 0.95,0.45 2.55,3.65 6.8,6.35 4.45,2.8 10.1,4.2 l 0.4,0.45 q 0.6,6.9 4.55,14 3.95,7.05 9.65,11.55 2.7,2.15 3.45,4.05 1.45,3.25 1.3,6.65 2.05,-2.75 5.05,-4.3 l 0.85,-0.15 0.35,0.8 q 0.5,4.05 1.75,7.3 2.3,-1.75 6.2,-3.7 l 2.9,-2 2.6,-2.5 q 10.6,-10.6 15.8,-21.25 5.15,-10.5 2.6,-24.9 -4.15,-24.3 -9,-71.8 Q 82.35,117.7 82.35,97.8"
       id="path99" />
    <path
       fill="#0d131a"
       d="m 54.1,319.45 -0.85,1.9 q -2.8,1.35 -5.9,2.1 -3.95,1 -4.8,-0.1 -0.75,-0.95 1.2,-3.95 2.05,-3.1 5.75,-6.35 0.9,-0.75 1.2,-0.4 0.35,0.35 -0.45,1.1 -2.65,2.55 -4.55,5.4 -1.75,2.6 -1.45,3.1 0.35,0.65 3.85,-0.35 3.4,-1 6,-2.45"
       id="path100" />
    <path
       fill="#0d131a"
       d="m 75.3,289.1 2.6,-1.6 q -4,6.15 -6.1,13.65 -2.25,8 -1.95,16.1 0.05,1.6 -0.6,2.5 l -1.7,1.2 q -3,1.5 -8.15,2.5 -5.85,1.15 -7,-0.3 -0.85,-1.1 1.2,-4.3 1.75,-2.8 3.85,-4.65 0.8,-0.75 1.15,-0.4 0.3,0.35 -0.4,1.1 -1.7,1.9 -3.05,4.25 -1.3,2.25 -1.05,2.8 l 5.3,-0.3 q 5.1,-0.9 7.55,-2.15 L 68,318.6 q 0.35,-0.6 0.3,-1.6 -0.35,-9.4 1.5,-16.1 1.55,-5.45 5.5,-11.8"
       id="path101" />
    <path
       fill="#0d131a"
       d="M 67.6,92.85 69.1,94 q 0.25,7.15 -0.9,15.1 -1.1,7.85 -3.35,14.6 l -2.55,2.7 q 2.2,-5.4 3.85,-16.85 1.55,-10.4 1.45,-16.7"
       id="path102" />
    <path
       fill="#0d131a"
       d="m 25.2,148.7 2.15,1.4 q -4.4,-1.4 -7.7,1.3 -3.25,2.65 -2.8,6.9 L 16,155.9 q 0.2,-3.7 3.05,-5.8 2.75,-2 6.15,-1.4"
       id="path103" />
    <path
       fill="#0d131a"
       d="m 42.65,159.7 0.1,-1.55 q 3.9,1.5 7.65,3.7 -0.9,-5 -2.85,-8.75 -0.4,-0.75 0,-1.05 0.4,-0.3 0.9,0.55 1.3,2.1 2.35,5.25 1.05,3.05 1.35,5.55 0.1,0.6 -0.25,0.8 -0.35,0.2 -0.85,-0.2 L 47,161.65 q -2.55,-1.3 -4.35,-1.95"
       id="path104" />
    <path
       fill="#0d131a"
       d="m 39.9,150.95 q -3.35,1.15 -5.55,2.35 -0.95,0.45 -0.35,1.05 l 7.9,8.5 q 0.45,-3.7 0.1,-7.45 -0.1,-0.95 0.35,-1 0.5,-0.05 0.65,1 0.8,5.75 0.15,9.55 -0.1,0.65 -0.45,0.75 -0.4,0.1 -0.8,-0.45 l -4.2,-4.65 -5.15,-5.45 q -1.45,-1.6 0.9,-3.25 2.2,-1.55 5.75,-2.65 3.55,-1.05 6.65,-1.1 2.65,-0.05 6.05,3.25 3.1,3 4.6,6.5 0.5,1.25 -0.7,1 l -5.5,-0.3 -0.3,-1.2 4.35,-0.2 q -1.7,-2.95 -3.8,-5 -2.55,-2.5 -4.7,-2.5 -2.15,0 -5.95,1.25"
       id="path105" />
    <path
       fill="#0d131a"
       d="M 28.05,140.3 Q 27.15,133.75 27.7,125 l 1.25,-4.2 q -0.4,8.5 0.85,17.9 1.25,9.5 3.45,14.25 l -1.1,1.45 q -3.05,-6.85 -4.1,-14.1"
       id="path106" />
    <path
       fill="#0d131a"
       d="m 10.6,146.6 q 6.1,-11.85 16.35,-18.2 L 26.6,131 q -8.75,5.95 -14.4,17.1 -5.6,11.15 -5.1,21.5 0.1,2.7 1.1,3.55 0.9,0.85 3.3,0.55 6.85,-0.8 11.5,-3.2 l 0.95,1.5 q -5.6,2.85 -12.3,3.6 -3.25,0.35 -4.7,-1.05 -1.45,-1.4 -1.65,-4.95 -0.6,-11.45 5.3,-23"
       id="path107" />
    <path
       fill="#0d131a"
       d="m 7,195.25 0.75,-1.7 q 12.45,10.6 39.65,11.25 27.4,0.65 44.1,-9.45 l 0.3,1.85 Q 75.45,207.65 47.45,207 34.7,206.7 24.2,203.75 13.05,200.65 7,195.25"
       id="path108" />
    <path
       fill="#0d131a"
       d="m 92.8,205.05 0.3,1.8 q -6.75,4.4 -19.2,6.9 Q 61.7,216.2 48.15,216.1 33.9,215.95 22.8,212.95 10.45,209.6 4.6,203.35 l 0.7,-1.7 q 5.75,6 17.8,9.25 10.9,2.9 24.9,3.05 13.3,0.15 25.45,-2.25 12.4,-2.4 19.35,-6.65"
       id="path109" />
    <path
       fill="#0d131a"
       d="m 95.55,226.1 0.25,1.75 q -8.55,4.3 -22.15,6.5 -13.5,2.25 -27.6,1.75 -14.95,-0.55 -26.3,-4 Q 7.2,228.25 1.45,221.5 l 0.45,-2 q 10.95,12.85 43.5,14.35 14,0.6 27.45,-1.45 13.7,-2.05 22.7,-6.3"
       id="path110" />
    <path
       fill="#0d131a"
       d="M 61.35,125.55 Q 73.3,112.95 77.7,113 q 1.15,0.05 3.15,1.85 2,1.85 3.35,4.1 l -0.15,2.35 q -1.75,-2.75 -3.8,-4.85 -1.95,-2 -2.7,-2 -2.9,0.1 -14.7,12.4 Q 50.25,140 46.1,149 l -1.8,-0.1 q 4.85,-10.4 17.05,-23.35"
       id="path111" />
    <path
       fill="#0d131a"
       d="m 52.05,181.55 1.75,-0.15 -1.2,3.8 q 6.15,1.15 18.65,-1.15 12.65,-2.25 18.3,-5.65 l 0.2,1.6 q -6.25,3.55 -19.05,5.9 -13.15,2.35 -19.7,0.9 -0.85,-0.2 -0.6,-1 l 1.65,-4.25"
       id="path112" />
    <path
       fill="#0d131a"
       d="m 72.95,141.35 q 2.3,-2.45 3.7,-2.35 1.8,0.1 4.85,4.4 3.3,4.65 5.6,10.9 l 0.25,3.35 q -3.2,-7.35 -6.7,-12.6 -3.05,-4.55 -4.15,-4.65 -0.8,0.05 -2.6,2.15 -2.2,2.55 -3.75,6.05 l -1.95,0.35 q 2,-4.75 4.75,-7.6"
       id="path113" />
    <path
       fill="#0d131a"
       d="m 110.65,38.1 q -2.35,-15.1 -4,-19.7 -0.25,-0.65 0,-0.9 0.3,-0.3 1,0 4.4,1.7 6.4,6.2 0.45,1 0.1,1.25 -0.4,0.2 -1,-0.75 -2,-3.1 -4.45,-4.35 2.6,8.6 5.8,34.55 1.5,12.45 1.6,32.15 0.05,19.45 -1.3,34.4 -2.4,25.9 -7.05,48.1 -5.5,26.1 -13.6,44.8 l -0.75,-3.8 q 14.85,-35.45 19.35,-89.25 1.65,-19.5 1.7,-37.05 0,-17.2 -1.5,-29.25 l -2.3,-16.4"
       id="path114" />
    <path
       fill="#0d131a"
       d="m 123.35,14.4 -0.9,1.15 Q 121,11.5 119.3,8.35 114.65,15.1 113.65,23.7 l -1.1,-1.4 q 0.75,-5.1 2.1,-8.65 1.45,-3.75 4.05,-7.3 0.8,-1 1.3,0 1.65,3.2 3.35,8.05"
       id="path115" />
    <path
       fill="#0d131a"
       d="m 137.3,0.05 q 0.4,0.2 0.2,1.05 -1.65,8.2 -2,17.5 l -1.25,0.15 -0.1,0.05 q -0.7,-7.15 1.6,-16.2 -8.1,6.65 -13.1,13.8 -0.55,0.85 -1,0.6 -0.4,-0.3 0.15,-1.15 3.45,-5.4 5.95,-8.25 3.45,-3.95 8.35,-7.25 0.8,-0.55 1.2,-0.3"
       id="path116" />
    <path
       fill="#0d131a"
       d="m 148.5,17.15 q -5.25,8.25 -10.4,13.1 l -1.25,-0.6 9.7,-12.25 q -5.4,0.4 -12.95,2.1 -1.05,0.25 -1.1,-0.2 -0.1,-0.4 0.9,-0.8 6.75,-2.65 14.45,-2.65 1.5,0 0.65,1.3"
       id="path117" />
    <path
       fill="#0d131a"
       d="m 129.65,45.9 7.5,-6.2 q 4.45,-3.95 7.35,-7.1 -5.1,-0.55 -7.85,-2.3 -0.9,-0.55 -0.75,-0.9 l 1.15,-0.05 q 4,1.45 9.2,1.75 1.55,0 0.4,1.5 -2.65,3.6 -7.4,7.75 -4.25,3.75 -8.7,6.7 -1.1,0.75 -1.4,1.35 -0.25,0.5 -0.2,1.5 1.95,31 2.1,50.65 0.15,27.8 -2.8,50.95 -6.5,50.1 -29.5,94.7 l -0.45,-3.45 q 21.15,-40.45 27.9,-91.8 3.65,-27.75 3.2,-59.2 -0.15,-11.3 -1.9,-41.9 -0.15,-2.2 2.15,-3.95"
       id="path118" />
    <path
       fill="#0d131a"
       d="m 115,69.95 0.05,-1.6 q 2.15,1.95 7,2.05 4.75,0.1 7.3,-1.6 v 1.45 q -2.9,2 -7.3,1.95 -4.5,-0.05 -7.05,-2.25"
       id="path119" />
    <path
       fill="#0d131a"
       d="m 115.3,78.75 0.05,-1.65 q 2.4,2.2 6.95,2.3 4.65,0.15 7.35,-2.05 l 0.1,1.55 q -2.9,2.3 -7.3,2.3 -4.45,-0.05 -7.15,-2.45"
       id="path120" />
    <path
       fill="#0d131a"
       d="m 130.15,100.45 q -2.7,2.8 -7.45,2.8 -4.8,-0.05 -7.6,-3.1 l 0.25,-1.55 q 2.45,2.75 7.3,2.8 4.8,0.05 7.45,-2.6 l 0.05,1.65"
       id="path121" />
    <path
       fill="#0d131a"
       d="m 122.25,110.3 q 4.6,0.15 7.7,-2.45 l 0.1,1.6 q -3.35,2.8 -7.95,2.65 -4.6,-0.2 -7.25,-3.2 l 0.25,-1.6 q 2.45,2.85 7.15,3"
       id="path122" />
    <path
       fill="#0d131a"
       d="m 129.1,130.15 -0.05,1.75 q -3.75,3.05 -8.6,2.9 -4.75,-0.2 -7.5,-3.25 l 0.3,-1.65 q 2.55,2.75 7.35,2.95 5.05,0.2 8.5,-2.7"
       id="path123" />
    <path
       fill="#0d131a"
       d="m 17.15,148.1 q 2.2,-1.65 5.1,-1.2 3,0.45 6.4,3.1 l 3.8,3.1 2.45,4.05 -7.2,-6 q -2.5,-1.95 -4.9,-2.55 -2.8,-0.7 -4.7,0.7 -2.55,1.9 -0.9,8 1.65,6.5 7.95,14.55 6.05,7.75 10.15,9.25 4.65,1.75 15.35,-0.3 10.4,-2 18.3,-5.9 l 1.2,-0.1 q 0.25,0.4 -0.65,1 -6.55,4.4 -18.35,6.85 -11.7,2.45 -16.65,0.55 -4.65,-1.75 -10.85,-10.1 -6.25,-8.35 -8.05,-15.4 -0.8,-3 -0.55,-5.4 0.3,-2.85 2.1,-4.2"
       id="path124" />
    <path
       fill="#0d131a"
       d="m 73.4,147.55 q 1.45,-0.1 1.5,0.35 0,0.5 -1.4,0.7 -7.8,1.2 -19.9,6 l -0.95,-1.8 q 5.25,-2.05 10.85,-3.45 5.6,-1.4 9.9,-1.8"
       id="path125" />
    <path
       fill="#0d131a"
       d="m 59.85,49.95 -0.2,10 -1.55,-0.3 q 0,-3.7 0.7,-9.75 0.1,-1.05 0.6,-1 0.5,0 0.45,1.05"
       id="path126" />
    <path
       fill="#0d131a"
       d="m 13.35,177.15 q 2.75,1.45 3.55,1.75 l 0.9,-5.55 1.7,-0.45 q -0.4,4.35 -1.2,7.3 -0.25,0.9 -1.15,0.6 -2.25,-0.8 -4.4,-2.2 l 0.6,-1.45"
       id="path127" />
  </g>
</svg>
